<svg width="64" height="64" viewBox="0 0 64 64" fill="none" xmlns="http://www.w3.org/2000/svg">
<path d="M12.9488 31.5357V39.5016M18.2593 62.0714L19.587 48.795H24.8975V38.1739C24.8975 31.5748 19.5479 26.2252 12.9488 26.2252C6.34964 26.2252 1 31.5748 1 38.1739V48.795H6.31056L7.6382 62.0714M6.12469 10.2935C8.62123 12.8405 12.0375 14.2759 15.604 14.2764C17.4303 14.2826 19.2381 13.912 20.9146 13.1877M20.9146 1H59.4162C60.8826 1 62.0714 2.18881 62.0714 3.65528V30.2081C62.0714 31.6745 60.8826 32.8634 59.4162 32.8634H31.5357M38.1739 32.8634V48.795M32.8634 48.795H43.4845M28.8804 19.587L36.8463 11.6211L40.8292 15.604L50.1227 6.31056M50.1227 6.31056H43.4845M50.1227 6.31056V12.9488M46.1398 22.2422H51.4503M46.1398 27.5528H54.1056M5.03602 14.2764C5.03557 18.6761 8.59024 22.2431 12.9753 22.2431C17.3604 22.2431 20.915 18.6761 20.9146 14.2764C20.915 9.87666 17.3604 6.30973 12.9753 6.30973C8.59024 6.30973 5.03557 9.87666 5.03602 14.2764Z" stroke="#4D4D4D" stroke-width="2" stroke-linecap="round" stroke-linejoin="round"/>
</svg>
