<?xml version="1.0" encoding="utf-8" standalone="yes"?>
<!DOCTYPE svg PUBLIC "-//W3C//DTD SVG 1.1//EN" "http://www.w3.org/Graphics/SVG/1.1/DTD/svg11.dtd">
<svg width="74" height="74" viewBox="0 0 74 74" style="fill:none;stroke:none;fill-rule:evenodd;clip-rule:evenodd;stroke-linecap:round;stroke-linejoin:round;stroke-miterlimit:1.5;" version="1.1" xmlns="http://www.w3.org/2000/svg" xmlns:xlink="http://www.w3.org/1999/xlink"><g id="items" style="isolation: isolate"><g id="blend" style="mix-blend-mode: normal"><g id="g-root-ic_cash_18n6ios19ueioe-fill" data-item-order="1000000000" transform="translate(3, 3)"></g><g id="g-root-ic_cash_18n6ios19ueioe-stroke" data-item-order="1000000000" transform="translate(3, 3)"><g id="ic_cash_18n6ios19ueioe-stroke" fill="none" stroke-linecap="round" stroke-linejoin="round" stroke-miterlimit="4" stroke="#ffffff" stroke-width="2"><g><path d="M 31.042 57.021999L 13.042 57.021999C 11.93743 57.021999 11.042 56.126568 11.042 55.021999L 11.042 13.022C 11.042 11.917431 11.93743 11.022 13.042 11.022L 39.627998 11.022C 40.157242 11.019989 40.66571 11.227833 41.042 11.6L 48.456001 19.014C 48.8311 19.388985 49.041885 19.89761 49.042 20.428001L 49.042 27.021999M 19.042 37.84L 24.950001 31.931999C 25.532717 31.350485 26.4445 31.260143 27.130001 31.716002L 29.916 33.573997C 30.618618 34.041878 31.556442 33.93364 32.134003 33.318001L 37.610001 27.476M 19.042 23.021999L 19.042 43.021999L 27.042 43.021999M 48.042 39.021999L 43.976002 39.021999C 42.687798 39.017899 41.578644 39.930244 41.33419 41.195045C 41.089737 42.459843 41.779045 43.719788 42.975998 44.195999L 47.102001 45.846001C 48.297115 46.324085 48.98455 47.583309 48.740379 48.847134C 48.496212 50.110958 47.389194 51.023491 46.102001 51.021999L 42.042 51.021999M 45.042 53.021999L 45.042 51.021999M 45.042 39.021999L 45.042 37.021999M 33.042 45.021999C 33.042 51.649418 38.414581 57.021999 45.042 57.021999C 51.669418 57.021999 57.042 51.649418 57.042 45.021999C 57.042 38.394585 51.669418 33.022003 45.042 33.022003C 38.414581 33.022003 33.042 38.394585 33.042 45.021999Z"></path></g></g></g></g></g></svg>