<svg width="64" height="64" viewBox="0 0 64 64" fill="none" xmlns="http://www.w3.org/2000/svg">
<path d="M39.4996 38.1691V23.5669C39.4996 22.8338 38.9051 22.2395 38.1718 22.2395H35.5163C34.783 22.2395 34.1886 22.8338 34.1886 23.5669V38.1691M28.8776 38.1691V31.5317C28.8776 30.7986 28.2831 30.2043 27.5498 30.2043H24.8943C24.161 30.2043 23.5665 30.7986 23.5665 31.5317V38.1691M20.911 38.1691H42.1551M12.9445 31.46C12.9445 41.724 21.2669 50.0446 31.5331 50.0446C41.7992 50.0446 50.1216 41.724 50.1216 31.46C50.1216 21.1961 41.7992 12.8755 31.5331 12.8755C21.2669 12.8755 12.9445 21.1961 12.9445 31.46ZM60.9083 35.6601C61.5766 35.5767 62.0766 35.0061 62.0714 34.3327V28.7202C62.0766 28.0468 61.5766 27.4762 60.9083 27.3927L54.9307 26.6467C54.3214 23.7196 53.1636 20.9343 51.5184 18.4376L55.2228 13.672C55.6332 13.1439 55.5865 12.393 55.114 11.9198L51.1307 7.93737C50.6573 7.46489 49.9063 7.41824 49.3781 7.82852L44.6114 11.5454C42.1138 9.90083 39.3281 8.74246 36.4006 8.13118L35.6624 2.1629C35.5789 1.49468 35.0082 0.994846 34.3346 1.00004H28.7209C28.0473 0.994846 27.4766 1.49468 27.3931 2.1629L26.6469 8.13649C23.7231 8.74904 20.9411 9.90736 18.4467 11.5507L13.6801 7.84711C13.1519 7.43683 12.4008 7.48347 11.9275 7.95596L7.94419 11.9384C7.47161 12.4116 7.42495 13.1625 7.83532 13.6906L11.553 18.4695C9.90782 20.9661 8.75001 23.7515 8.1407 26.6785L2.16315 27.4246C1.49479 27.508 0.994845 28.0786 1.00004 28.752V34.3752C0.994845 35.0486 1.49479 35.6191 2.16315 35.7026L8.1407 36.4487C8.75001 39.3757 9.90782 42.1611 11.553 44.6577L7.84328 49.3808C7.43292 49.9089 7.47957 50.6598 7.95216 51.1331L11.9354 55.1155C12.4088 55.588 13.1598 55.6346 13.6881 55.2243L18.468 51.5207C20.9656 53.1653 23.7513 54.3237 26.6788 54.9349L27.425 60.9085C27.5085 61.5767 28.0792 62.0766 28.7527 62.0714H34.3771C35.0506 62.0766 35.6214 61.5767 35.7049 60.9085L36.4511 54.9349C39.3785 54.3237 42.1643 53.1653 44.6619 51.5207L49.4285 55.2243C49.9568 55.6346 50.7078 55.588 51.1812 55.1155L55.1644 51.1331C55.637 50.6598 55.6837 49.9089 55.2733 49.3808L51.5689 44.6152C53.2141 42.1186 54.3719 39.3332 54.9812 36.4062L60.9083 35.6601Z" stroke="#4D4D4D" stroke-width="2" stroke-linecap="round" stroke-linejoin="round"/>
</svg>
