<?xml version="1.0" encoding="utf-8" standalone="yes"?>
<!DOCTYPE svg PUBLIC "-//W3C//DTD SVG 1.1//EN" "http://www.w3.org/Graphics/SVG/1.1/DTD/svg11.dtd">
<svg width="74" height="74" viewBox="0 0 74 74" style="fill:none;stroke:none;fill-rule:evenodd;clip-rule:evenodd;stroke-linecap:round;stroke-linejoin:round;stroke-miterlimit:1.5;" version="1.1" xmlns="http://www.w3.org/2000/svg" xmlns:xlink="http://www.w3.org/1999/xlink"><g id="items" style="isolation: isolate"><g id="blend" style="mix-blend-mode: normal"><g id="g-root-ic_1_3zcfsflbi17-fill" data-item-order="1000000000" transform="translate(3, 3)"></g><g id="g-root-ic_1_3zcfsflbi17-stroke" data-item-order="1000000000" transform="translate(3, 3)"><g id="ic_1_3zcfsflbi17-stroke" fill="none" stroke-linecap="round" stroke-linejoin="round" stroke-miterlimit="4" stroke="#ffffff" stroke-width="2"><g><path d="M 33 47L 39 47C 43.418278 47 47 50.581722 47 55L 11 55M 11 39L 25 39C 29.418278 39 33 42.581722 33 47L 24 47M 11 37L 11 57M 53 14.88L 53 11M 43 43L 43 17.780001C 42.997658 17.321644 43.313335 16.922892 43.760002 16.82L 55.759998 14.32C 56.05891 14.237597 56.379219 14.304638 56.619999 14.5C 56.861134 14.68671 57.001598 14.975037 57 15.280001L 57 47L 48 47M 31 36L 31 25C 31 23.895432 31.89543 23 33 23L 43 23M 47 21L 53 21M 47 25L 53 25M 47 29L 53 29M 35 28L 39 28M 35 32L 39 32"></path></g></g></g></g></g></svg>