<?xml version="1.0" encoding="utf-8" standalone="yes"?>
<!DOCTYPE svg PUBLIC "-//W3C//DTD SVG 1.1//EN" "http://www.w3.org/Graphics/SVG/1.1/DTD/svg11.dtd">
<svg width="74" height="74" viewBox="0 0 74 74" style="fill:none;stroke:none;fill-rule:evenodd;clip-rule:evenodd;stroke-linecap:round;stroke-linejoin:round;stroke-miterlimit:1.5;" version="1.1" xmlns="http://www.w3.org/2000/svg" xmlns:xlink="http://www.w3.org/1999/xlink"><g id="items" style="isolation: isolate"><g id="blend" style="mix-blend-mode: normal"><g id="g-root-ic_home_zqxqsb19uei30-fill" data-item-order="1000000000" transform="translate(3, 3)"></g><g id="g-root-ic_home_zqxqsb19uei30-stroke" data-item-order="1000000000" transform="translate(3, 3)"><g id="ic_home_zqxqsb19uei30-stroke" fill="none" stroke-linecap="round" stroke-linejoin="round" stroke-miterlimit="4" stroke="#ffffff" stroke-width="2"><g><path d="M 29 57L 13 57C 11.895431 57 11 56.104568 11 55L 11 13C 11 11.895431 11.895431 11 13 11L 39.580002 11C 40.114494 11.002219 40.625854 11.218288 41 11.6L 48.400002 19C 48.775097 19.374985 48.985886 19.88361 48.986 20.414L 48.986 31M 17.077999 41.006001L 29.077999 41.006001M 20 31L 22 31C 22.552284 31 23 31.447716 23 32L 23 41L 23 41L 19 41L 19 41L 19 32C 19 31.447716 19.447716 31 20 31ZM 31 35L 31 26C 31 25.447716 30.552284 25 30 25L 28 25C 27.447716 25 27 25.447716 27 26L 27 41M 35 42.622002L 35 55C 35 56.104568 35.895432 57 37 57L 51 57C 52.104568 57 53 56.104568 53 55L 53 42.622002M 31 46L 42.708 36.094002C 43.453732 35.462898 44.546268 35.462898 45.292 36.094002L 57 46M 47 57L 41 57L 41 51C 41 49.343147 42.343147 48 44 48C 45.656857 48 47 49.343147 47 51Z"></path></g></g></g></g></g></svg>