<?xml version="1.0" encoding="utf-8" standalone="yes"?>
<!DOCTYPE svg PUBLIC "-//W3C//DTD SVG 1.1//EN" "http://www.w3.org/Graphics/SVG/1.1/DTD/svg11.dtd">
<svg width="74" height="74" viewBox="0 0 74 74" style="fill:none;stroke:none;fill-rule:evenodd;clip-rule:evenodd;stroke-linecap:round;stroke-linejoin:round;stroke-miterlimit:1.5;" version="1.1" xmlns="http://www.w3.org/2000/svg" xmlns:xlink="http://www.w3.org/1999/xlink"><g id="items" style="isolation: isolate"><g id="blend" style="mix-blend-mode: normal"><g id="g-root-ic_lapt_v3lueiehfz7m-fill" data-item-order="1000000000" transform="translate(3, 3)"></g><g id="g-root-ic_lapt_v3lueiehfz7m-stroke" data-item-order="1000000000" transform="translate(3, 3)"><g id="ic_lapt_v3lueiehfz7m-stroke" fill="none" stroke-linecap="round" stroke-linejoin="round" stroke-miterlimit="4" stroke="#ffffff" stroke-width="2"><g><path d="M 54.220001 52C 57.259998 52 57.34 48.459999 56.639999 47.459999L 50 40L 18 40L 11.36 47.459999C 10.66 48.459999 10.74 52 13.78 52ZM 50 40L 50 18C 50 16.895432 49.104568 16 48 16L 20 16C 18.895432 16 18 16.895432 18 18L 18 40M 28 46L 38 46M 41 21L 38.239998 31.34C 38.092075 31.732271 37.719193 31.994081 37.299999 32L 29.139999 32C 28.74264 31.996284 28.383608 31.762135 28.219999 31.4L 26 25.4C 25.857452 25.076876 25.895916 24.702522 26.101191 24.415136C 26.306467 24.12775 26.648109 23.969954 27 24L 40.200001 24M 29.5 35C 29.776142 35 30 35.223858 30 35.5C 30 35.776142 29.776142 36 29.5 36C 29.223858 36 29 35.776142 29 35.5C 29 35.223858 29.223858 35 29.5 35M 36.5 35C 36.776142 35 37 35.223858 37 35.5C 37 35.776142 36.776142 36 36.5 36C 36.223858 36 36 35.776142 36 35.5C 36 35.223858 36.223858 35 36.5 35"></path></g></g></g></g></g></svg>