<svg width="64" height="64" viewBox="0 0 64 64" fill="none" xmlns="http://www.w3.org/2000/svg">
<path d="M8.46133 24.0744H31.5357C35.6565 24.0744 38.997 27.4149 38.9971 31.5357L38.9971 54.6101C38.997 58.7308 35.6564 62.0712 31.5357 62.0712C27.415 62.0712 24.0745 58.7308 24.0744 54.6101V38.9971L8.46133 38.9971M8.46133 24.0744C4.34062 24.0745 1.00018 27.415 1.00018 31.5357C1.00018 35.6564 4.34062 38.997 8.46133 38.9971M8.46133 24.0744C12.5822 24.0744 15.9228 27.4149 15.9227 31.5357C15.9228 35.6566 12.5822 38.9971 8.46133 38.9971M54.6101 1H31.5357C27.415 1.0001 24.0746 4.34062 24.0746 8.46133C24.0746 12.582 27.415 15.9226 31.5357 15.9227H47.1488V31.5357C47.1487 35.6566 50.4892 38.9972 54.6101 38.9972C58.7309 38.9972 62.0715 35.6566 62.0714 31.5357V8.46133C62.0714 4.34055 58.7309 1 54.6101 1Z" stroke="#4D4D4D" stroke-width="2" stroke-linecap="round" stroke-linejoin="round"/>
</svg>
