<svg width="64" height="64" viewBox="0 0 64 64" fill="none" xmlns="http://www.w3.org/2000/svg">
<path d="M22.2422 62.0714H3.65528C2.18881 62.0714 1 60.8826 1 59.4162V3.65528C1 2.18881 2.18881 1 3.65528 1H38.9439C39.647 1.00978 40.3204 1.28482 40.8292 1.77003L50.6537 11.6211C51.1605 12.1178 51.4474 12.7968 51.4503 13.5064V22.2422M8.96584 40.8292H24.8975M27.5528 32.8634V20.9146C27.5528 20.1814 26.9584 19.587 26.2252 19.587H23.5699C22.8366 19.587 22.2422 20.1814 22.2422 20.9146V40.8292M50.3616 39.8733L58.4602 43.4845M58.4602 43.4845L62.0714 35.3328M58.4602 43.4845C57.7265 36.5868 52.3054 31.1214 45.4139 30.3316C38.5224 29.5418 32.0053 33.639 29.7301 40.1919M37.8818 52.4062L29.7832 48.795M29.7832 48.795L26.172 56.9467M29.7832 48.795C30.5262 55.6892 35.9512 61.1459 42.8409 61.9291C49.7305 62.7124 56.2419 58.6125 58.5134 52.061M12.9488 27.5528H15.604C16.3373 27.5528 16.9317 28.1472 16.9317 28.8804V40.8292H11.6211V28.8804C11.6211 28.1472 12.2155 27.5528 12.9488 27.5528Z" stroke="#4D4D4D" stroke-width="2" stroke-linecap="round" stroke-linejoin="round"/>
</svg>
